<svg width="14" height="14" viewBox="0 0 14 14" fill="none" xmlns="http://www.w3.org/2000/svg">
<g clip-path="url(#clip0_11_68)">
<path fill-rule="evenodd" clip-rule="evenodd" d="M6.99996 0.55814C3.35263 0.55814 0.39502 3.51509 0.39502 7.16308C0.39502 10.0814 2.28754 12.5571 4.91188 13.4306C5.24186 13.4918 5.36305 13.2873 5.36305 13.1129C5.36305 12.9554 5.35693 12.4351 5.35408 11.8832C3.51658 12.2827 3.12885 11.1039 3.12885 11.1039C2.82839 10.3404 2.39549 10.1374 2.39549 10.1374C1.79611 9.72748 2.44066 9.73601 2.44066 9.73601C3.1038 9.7825 3.45314 10.4167 3.45314 10.4167C4.04224 11.4262 4.99829 11.1344 5.37519 10.9657C5.43447 10.5388 5.60564 10.2473 5.79454 10.0824C4.32749 9.91561 2.78519 9.34915 2.78519 6.81833C2.78519 6.09722 3.04332 5.50801 3.46583 5.04536C3.39714 4.87911 3.17107 4.20733 3.52971 3.29755C3.52971 3.29755 4.08424 3.12003 5.34643 3.97458C5.87339 3.82812 6.43854 3.75451 6.99996 3.752C7.56105 3.75451 8.12652 3.82791 8.65447 3.97436C9.91513 3.11981 10.469 3.29733 10.469 3.29733C10.8285 4.207 10.6024 4.87889 10.5339 5.04514C10.9574 5.5078 11.2136 6.097 11.2136 6.81811C11.2136 9.35495 9.66849 9.91342 8.19772 10.077C8.43474 10.282 8.64583 10.6841 8.64583 11.3002C8.64583 12.1839 8.63818 12.8952 8.63818 13.1127C8.63818 13.2885 8.75718 13.4945 9.09186 13.4296C11.7147 12.5553 13.605 10.0803 13.605 7.16308C13.6049 3.51531 10.6476 0.55814 6.99996 0.55814Z" fill="white" fill-opacity="0.8"/>
<path d="M2.89673 10.0413C2.88219 10.0741 2.83056 10.0839 2.78353 10.0615C2.73541 10.0401 2.70861 9.99534 2.72414 9.96242C2.73836 9.92852 2.79009 9.91922 2.83789 9.94186C2.88601 9.96341 2.91336 10.0086 2.89662 10.0414L2.89673 10.0413ZM3.16427 10.3398C3.13287 10.369 3.0713 10.3554 3.02952 10.3091C2.9862 10.2632 2.97811 10.2016 3.01016 10.172C3.04275 10.1429 3.10247 10.1567 3.14578 10.2026C3.18887 10.2492 3.19741 10.3102 3.16437 10.3399L3.16427 10.3398ZM3.4248 10.7201C3.38433 10.7483 3.31805 10.7219 3.27714 10.6632C3.23667 10.6043 3.23667 10.5338 3.27823 10.5057C3.31903 10.4775 3.38433 10.503 3.42589 10.5611C3.46614 10.6207 3.46614 10.6914 3.4248 10.7201ZM3.78147 11.0877C3.74537 11.1276 3.66816 11.1169 3.61172 11.0625C3.55408 11.0092 3.538 10.9335 3.5742 10.8936C3.61095 10.8536 3.6885 10.8648 3.74527 10.9188C3.80291 10.972 3.8203 11.0479 3.78169 11.0876L3.78147 11.0877ZM4.27366 11.3011C4.25758 11.3528 4.18342 11.3763 4.1085 11.3542C4.0338 11.3316 3.98491 11.2711 4.00022 11.2188C4.01553 11.1666 4.09023 11.1422 4.16559 11.1658C4.2403 11.1883 4.28919 11.2485 4.27366 11.3011ZM4.8143 11.3405C4.81616 11.395 4.75272 11.4401 4.6743 11.4412C4.59522 11.443 4.53123 11.3988 4.53047 11.3452C4.53047 11.2902 4.59259 11.2457 4.67156 11.2442C4.74998 11.2428 4.81441 11.2865 4.81441 11.3404L4.8143 11.3405ZM5.3172 11.255C5.32661 11.3081 5.27203 11.3626 5.19405 11.3772C5.11748 11.3914 5.04639 11.3584 5.03655 11.3058C5.02714 11.2513 5.0827 11.1967 5.15927 11.1826C5.23736 11.1692 5.30736 11.2011 5.3172 11.255Z" fill="white" fill-opacity="0.8"/>
</g>
<defs>
<clipPath id="clip0_11_68">
<rect width="14" height="14" fill="white"/>
</clipPath>
</defs>
</svg>
