<svg width="14" height="14" viewBox="0 0 14 14" fill="none" xmlns="http://www.w3.org/2000/svg">
<path d="M3.61703 12.25H1.07734V4.07148H3.61703V12.25ZM2.34582 2.95586C1.53371 2.95586 0.875 2.2832 0.875 1.47109C0.875 1.08101 1.02996 0.706898 1.30579 0.431066C1.58163 0.155234 1.95573 0.000272751 2.34582 0.000272751C2.73591 0.000272751 3.11001 0.155234 3.38585 0.431066C3.66168 0.706898 3.81664 1.08101 3.81664 1.47109C3.81664 2.2832 3.15766 2.95586 2.34582 2.95586ZM13.1223 12.25H10.588V8.26875C10.588 7.31992 10.5689 6.10312 9.26762 6.10312C7.94719 6.10312 7.74484 7.13398 7.74484 8.20039V12.25H5.20789V4.07148H7.64367V5.18711H7.67922C8.01828 4.54453 8.84652 3.86641 10.0822 3.86641C12.6525 3.86641 13.125 5.55898 13.125 7.75742V12.25H13.1223Z" fill="white" fill-opacity="0.8"/>
</svg>
